solid ascii
  facet normal 0.000000e+000 0.000000e+000 1.000000e+000
    outer loop
      vertex   -1.070622e+002 1.155280e+002 1.000000e+001
      vertex   -1.170622e+002 1.155280e+002 1.000000e+001
      vertex   -1.070622e+002 1.055280e+002 1.000000e+001
    endloop
  endfacet
  facet normal 0.000000e+000 0.000000e+000 1.000000e+000
    outer loop
      vertex   -1.070622e+002 1.055280e+002 1.000000e+001
      vertex   -1.170622e+002 1.155280e+002 1.000000e+001
      vertex   -1.170622e+002 1.055280e+002 1.000000e+001
    endloop
  endfacet
  facet normal 0.000000e+000 0.000000e+000 -1.000000e+000
    outer loop
      vertex   -1.070622e+002 1.055280e+002 0.000000e+000
      vertex   -1.170622e+002 1.055280e+002 0.000000e+000
      vertex   -1.070622e+002 1.155280e+002 0.000000e+000
    endloop
  endfacet
  facet normal -0.000000e+000 0.000000e+000 -1.000000e+000
    outer loop
      vertex   -1.070622e+002 1.155280e+002 0.000000e+000
      vertex   -1.170622e+002 1.055280e+002 0.000000e+000
      vertex   -1.170622e+002 1.155280e+002 0.000000e+000
    endloop
  endfacet
  facet normal 0.000000e+000 -1.000000e+000 0.000000e+000
    outer loop
      vertex   -1.170622e+002 1.055280e+002 1.000000e+001
      vertex   -1.170622e+002 1.055280e+002 0.000000e+000
      vertex   -1.070622e+002 1.055280e+002 1.000000e+001
    endloop
  endfacet
  facet normal 0.000000e+000 -1.000000e+000 -0.000000e+000
    outer loop
      vertex   -1.070622e+002 1.055280e+002 1.000000e+001
      vertex   -1.170622e+002 1.055280e+002 0.000000e+000
      vertex   -1.070622e+002 1.055280e+002 0.000000e+000
    endloop
  endfacet
  facet normal -1.000000e+000 -0.000000e+000 -0.000000e+000
    outer loop
      vertex   -1.170622e+002 1.155280e+002 1.000000e+001
      vertex   -1.170622e+002 1.155280e+002 0.000000e+000
      vertex   -1.170622e+002 1.055280e+002 1.000000e+001
    endloop
  endfacet
  facet normal -1.000000e+000 -0.000000e+000 -0.000000e+000
    outer loop
      vertex   -1.170622e+002 1.055280e+002 1.000000e+001
      vertex   -1.170622e+002 1.155280e+002 0.000000e+000
      vertex   -1.170622e+002 1.055280e+002 0.000000e+000
    endloop
  endfacet
  facet normal 0.000000e+000 1.000000e+000 0.000000e+000
    outer loop
      vertex   -1.070622e+002 1.155280e+002 1.000000e+001
      vertex   -1.070622e+002 1.155280e+002 0.000000e+000
      vertex   -1.170622e+002 1.155280e+002 1.000000e+001
    endloop
  endfacet
  facet normal 0.000000e+000 1.000000e+000 0.000000e+000
    outer loop
      vertex   -1.170622e+002 1.155280e+002 1.000000e+001
      vertex   -1.070622e+002 1.155280e+002 0.000000e+000
      vertex   -1.170622e+002 1.155280e+002 0.000000e+000
    endloop
  endfacet
  facet normal 1.000000e+000 -0.000000e+000 0.000000e+000
    outer loop
      vertex   -1.070622e+002 1.055280e+002 1.000000e+001
      vertex   -1.070622e+002 1.055280e+002 0.000000e+000
      vertex   -1.070622e+002 1.155280e+002 1.000000e+001
    endloop
  endfacet
  facet normal 1.000000e+000 -0.000000e+000 0.000000e+000
    outer loop
      vertex   -1.070622e+002 1.155280e+002 1.000000e+001
      vertex   -1.070622e+002 1.055280e+002 0.000000e+000
      vertex   -1.070622e+002 1.155280e+002 0.000000e+000
    endloop
  endfacet
endsolid
